<svg width="407" height="294" viewBox="0 0 407 294" fill="none" xmlns="http://www.w3.org/2000/svg">
<path fill-rule="evenodd" clip-rule="evenodd" d="M204.581 275.651C185.22 283.498 161.89 288.079 136.778 288.079C69.7334 288.079 15.3829 255.425 15.3829 215.144C15.3829 174.863 69.7334 142.209 136.778 142.209C167.669 142.209 195.866 149.141 217.292 160.558C236.653 152.711 259.984 148.13 285.096 148.13C352.14 148.13 406.491 180.784 406.491 221.065C406.491 261.346 352.14 294 285.096 294C254.204 294 226.008 287.068 204.581 275.651Z" fill="#BC991D"/>
<path d="M105.731 56.1372L126.78 96.7655H267.755C273.139 79.4699 283.321 43.4103 280.971 37.5364C272.65 22.8515 260.412 10.614 246.217 4.74005C168.681 -12.0986 120.253 31.9887 105.731 56.1372Z" fill="#8C8383" stroke="black"/>
<path d="M133.143 63.9691C131.348 65.6007 128.346 74.3464 130.695 96.2758L272.649 90.4019C272.16 71.801 258.944 36.0677 209.994 41.9417C161.044 47.8157 138.364 59.0741 133.143 63.9691Z" fill="#514343" stroke="black"/>
<path fill-rule="evenodd" clip-rule="evenodd" d="M199.225 285.711C212.08 285.711 224.601 284.781 236.639 283.019C247.154 284.803 258.248 285.758 269.713 285.758C336.758 285.758 391.108 253.104 391.108 212.823C391.108 197.18 382.911 182.687 368.956 170.81C365.507 111.694 290.836 64.4585 199.225 64.4585C114.361 64.4585 44.0328 104.993 31.3931 157.957C11.884 170.898 -0.000111327 188.066 -0.000111327 206.902C-0.000111327 247.183 54.3504 279.837 121.395 279.837C127.914 279.837 134.313 279.528 140.554 278.934C158.84 283.318 178.603 285.711 199.225 285.711Z" fill="#FFC83A"/>
<path d="M162 218C178.06 222.528 212.945 228.867 224 218" stroke="black" stroke-width="4" stroke-linecap="round"/>
<path d="M67.5 195C84.5 227 105.5 275.9 53.5 215.5" stroke="black" stroke-width="4" stroke-linecap="round"/>
<path d="M299.5 210C276.667 240.833 247 288.6 311 233" stroke="black" stroke-width="4" stroke-linecap="round"/>
<path d="M143 164.5C143 168.77 141.999 172.538 140.484 175.169C138.938 177.854 137.104 179 135.5 179C133.896 179 132.062 177.854 130.516 175.169C129.001 172.538 128 168.77 128 164.5C128 160.23 129.001 156.462 130.516 153.831C132.062 151.146 133.896 150 135.5 150C137.104 150 138.938 151.146 140.484 153.831C141.999 156.462 143 160.23 143 164.5Z" fill="black" stroke="black" stroke-width="4"/>
<path d="M248 171.5C248 175.77 246.999 179.538 245.484 182.169C243.938 184.854 242.104 186 240.5 186C238.896 186 237.062 184.854 235.516 182.169C234.001 179.538 233 175.77 233 171.5C233 167.23 234.001 163.462 235.516 160.831C237.062 158.146 238.896 157 240.5 157C242.104 157 243.938 158.146 245.484 160.831C246.999 163.462 248 167.23 248 171.5Z" fill="black" stroke="black" stroke-width="4"/>
</svg>
