<svg width="407" height="294" viewBox="0 0 407 294" fill="none" xmlns="http://www.w3.org/2000/svg">
<path fill-rule="evenodd" clip-rule="evenodd" d="M205.03 275.651C185.669 283.498 162.338 288.079 137.226 288.079C70.1817 288.079 15.8312 255.425 15.8312 215.144C15.8312 174.863 70.1817 142.209 137.226 142.209C168.118 142.209 196.314 149.141 217.741 160.558C237.102 152.711 260.432 148.13 285.544 148.13C352.589 148.13 406.939 180.784 406.939 221.065C406.939 261.346 352.589 294 285.544 294C254.653 294 226.456 287.068 205.03 275.651Z" fill="#BC991D"/>
<path d="M106.18 56.1372L127.228 96.7655H268.203C273.588 79.4699 283.769 43.4103 281.419 37.5364C273.098 22.8515 260.861 10.614 246.665 4.74005C169.129 -12.0986 120.701 31.9887 106.18 56.1372Z" fill="#8C8383" stroke="black"/>
<path d="M133.591 63.9691C131.796 65.6007 128.794 74.3464 131.144 96.2758L273.098 90.4019C272.608 71.801 259.392 36.0677 210.442 41.9417C161.492 47.8157 138.812 59.0741 133.591 63.9691Z" fill="#514343" stroke="black"/>
<path fill-rule="evenodd" clip-rule="evenodd" d="M199.673 285.711C212.528 285.711 225.05 284.781 237.088 283.019C247.602 284.803 258.696 285.758 270.161 285.758C337.206 285.758 391.556 253.104 391.556 212.823C391.556 197.18 383.359 182.687 369.404 170.81C365.955 111.694 291.284 64.4585 199.673 64.4585C114.809 64.4585 44.4811 104.993 31.8415 157.957C12.3324 170.898 0.448242 188.066 0.448242 206.902C0.448242 247.183 54.7987 279.837 121.843 279.837C128.362 279.837 134.761 279.528 141.002 278.934C159.288 283.318 179.052 285.711 199.673 285.711Z" fill="#FFD43A"/>
<path d="M141 209.5C162.5 220.333 209.2 235.5 224 209.5" stroke="black" stroke-width="4" stroke-linecap="round"/>
<path d="M102.5 164.5C107.667 149.166 124.5 127 150.5 161" stroke="black" stroke-width="4" stroke-linecap="round"/>
<path d="M221 169.389C226.167 154.056 243 131.889 269 165.889" stroke="black" stroke-width="4" stroke-linecap="round"/>
<path d="M305.5 190C291.5 210.5 277 244.1 331 214.5" stroke="black" stroke-width="4" stroke-linecap="round"/>
<path d="M51.2292 190C63.9824 210.401 77.1911 243.838 28.0001 214.382" stroke="black" stroke-width="4" stroke-linecap="round"/>
</svg>
