<svg width="407" height="294" viewBox="0 0 407 294" fill="none" xmlns="http://www.w3.org/2000/svg">
<path fill-rule="evenodd" clip-rule="evenodd" d="M204.581 275.651C185.22 283.498 161.89 288.079 136.778 288.079C69.7334 288.079 15.3829 255.425 15.3829 215.144C15.3829 174.863 69.7334 142.209 136.778 142.209C167.669 142.209 195.866 149.141 217.292 160.558C236.653 152.711 259.984 148.13 285.096 148.13C352.14 148.13 406.491 180.784 406.491 221.065C406.491 261.346 352.14 294 285.096 294C254.204 294 226.008 287.068 204.581 275.651Z" fill="#BC7C1D"/>
<path d="M105.731 56.1372L126.78 96.7655H267.755C273.139 79.4699 283.321 43.4103 280.971 37.5364C272.65 22.8515 260.412 10.614 246.217 4.74005C168.681 -12.0986 120.253 31.9887 105.731 56.1372Z" fill="#8C8383" stroke="black"/>
<path d="M133.143 63.9691C131.348 65.6007 128.346 74.3464 130.695 96.2758L272.649 90.4019C272.16 71.801 258.944 36.0677 209.994 41.9417C161.044 47.8157 138.364 59.0741 133.143 63.9691Z" fill="#514343" stroke="black"/>
<path fill-rule="evenodd" clip-rule="evenodd" d="M199.225 285.711C212.08 285.711 224.601 284.781 236.639 283.019C247.154 284.803 258.248 285.758 269.713 285.758C336.758 285.758 391.108 253.104 391.108 212.823C391.108 197.18 382.911 182.687 368.956 170.81C365.507 111.694 290.836 64.4585 199.225 64.4585C114.361 64.4585 44.0329 104.993 31.3933 157.957C11.8841 170.898 0 188.066 0 206.902C0 247.183 54.3505 279.837 121.395 279.837C127.914 279.837 134.313 279.528 140.554 278.934C158.84 283.318 178.603 285.711 199.225 285.711Z" fill="#FFB03A"/>
<path d="M103 181.5C117.667 181.833 146.3 177.8 143.5 159" stroke="black" stroke-width="4" stroke-linecap="round"/>
<path d="M245 168C252 175.333 272.2 187.5 297 177.5" stroke="black" stroke-width="4" stroke-linecap="round"/>
<path d="M162.5 220C171.167 203.834 193.3 180.9 212.5 218.5" stroke="black" stroke-width="4" stroke-linecap="round"/>
<path d="M165 252.5C205 247.5 228.2 272.2 175 275" stroke="black" stroke-width="4" stroke-linecap="round"/>
<path d="M241.5 252C220 247.5 182 275.5 241.5 274" stroke="black" stroke-width="4" stroke-linecap="round"/>
</svg>
