<svg width="407" height="294" viewBox="0 0 407 294" fill="none" xmlns="http://www.w3.org/2000/svg">
<path fill-rule="evenodd" clip-rule="evenodd" d="M204.581 275.651C185.22 283.498 161.89 288.079 136.778 288.079C69.7333 288.079 15.3828 255.425 15.3828 215.144C15.3828 174.863 69.7333 142.209 136.778 142.209C167.669 142.209 195.866 149.141 217.292 160.558C236.653 152.711 259.984 148.13 285.096 148.13C352.14 148.13 406.491 180.784 406.491 221.065C406.491 261.346 352.14 294 285.096 294C254.204 294 226.008 287.068 204.581 275.651Z" fill="#BC601D"/>
<path d="M105.731 56.1372L126.78 96.7655H267.755C273.139 79.4699 283.321 43.4103 280.971 37.5364C272.65 22.8515 260.412 10.614 246.217 4.74005C168.681 -12.0986 120.253 31.9887 105.731 56.1372Z" fill="#8C8383" stroke="black"/>
<path d="M133.143 63.9691C131.348 65.6007 128.346 74.3464 130.695 96.2758L272.649 90.4019C272.16 71.801 258.944 36.0677 209.994 41.9417C161.044 47.8157 138.364 59.0741 133.143 63.9691Z" fill="#514343" stroke="black"/>
<path fill-rule="evenodd" clip-rule="evenodd" d="M199.225 285.711C212.08 285.711 224.601 284.781 236.639 283.019C247.154 284.803 258.248 285.758 269.713 285.758C336.758 285.758 391.108 253.104 391.108 212.823C391.108 197.18 382.911 182.687 368.956 170.81C365.507 111.694 290.836 64.4585 199.225 64.4585C114.361 64.4585 44.0329 104.993 31.3933 157.957C11.8841 170.898 0 188.066 0 206.902C0 247.183 54.3505 279.837 121.395 279.837C127.914 279.837 134.313 279.528 140.554 278.934C158.84 283.318 178.603 285.711 199.225 285.711Z" fill="#FF813A"/>
<path d="M306 213.026C328 210.526 358.8 211.026 306 233.026" stroke="black" stroke-width="4" stroke-linecap="round"/>
<path d="M74.0001 213C43.3334 213.833 0.400059 220.9 74.0001 242.5" stroke="black" stroke-width="4" stroke-linecap="round"/>
<path d="M95.5 158C106 169.667 132.2 186 153 158" stroke="black" stroke-width="4" stroke-linecap="round"/>
<path d="M212.5 163C224.333 177.5 254.4 198.9 280 168.5" stroke="black" stroke-width="4" stroke-linecap="round"/>
<path d="M124.5 222.5C126 216.5 134.2 207.3 155 218.5C167 199.5 182.5 201.5 189 215C194.6 223.8 201 212.667 203.5 206C206.833 203.667 214.9 202.9 220.5 218.5C227.7 224.9 233.5 218.833 235.5 215C238.333 216 244.1 220.1 244.5 228.5" stroke="black" stroke-width="4" stroke-linecap="round"/>
</svg>
