<svg width="261" height="247" viewBox="0 0 261 247" fill="none" xmlns="http://www.w3.org/2000/svg">
<path d="M66.7494 57.0714L81.3943 88.4344L170.878 85.2131C173.749 71.534 179.071 43.0382 177.394 38.4879C171.648 27.1682 163.493 17.8563 154.297 13.5767C104.549 2.15047 75.2035 37.8122 66.7494 57.0714Z" fill="#8C8383"/>
<path d="M84.3958 62.5897C83.3081 63.9096 81.679 70.8329 83.8637 87.9673L173.783 80.1196C172.884 65.5517 163.365 37.8463 132.48 43.5688C101.595 49.2913 87.5552 58.6338 84.3958 62.5897Z" fill="#514343"/>
<path fill-rule="evenodd" clip-rule="evenodd" d="M137.256 234.736C145.155 234.452 152.819 233.435 160.16 231.767C166.676 232.953 173.522 233.467 180.565 233.213C221.758 231.73 254.104 204.561 252.812 172.528C252.31 160.088 246.809 148.744 237.855 139.608C233.839 92.673 186.445 56.7615 130.159 58.7878C78.0171 60.6649 36.1072 94.4549 30.0402 136.853C18.4689 147.576 11.7179 161.492 12.3221 176.471C13.6143 208.503 48.0553 233.269 89.2482 231.786C93.2534 231.642 97.175 231.255 100.99 230.644C112.366 233.726 124.586 235.192 137.256 234.736Z" fill="#FFE03A"/>
<path d="M124.083 157.858C119.968 154.567 125.289 146.886 129.736 146.909C133.713 146.766 139.904 154.584 135.547 157.918C130.428 154.534 128.242 154.522 124.083 157.858Z" fill="#575353"/>
<path d="M89.6122 127.266C117.983 110.764 116.464 114.314 89.1337 98.5149" stroke="#575353" stroke-width="2" stroke-linecap="round"/>
<path d="M163.923 124.59C134.305 110.176 136.105 113.607 162.084 95.8883" stroke="#575353" stroke-width="2" stroke-linecap="round"/>
<g style="mix-blend-mode:multiply" filter="url(#filter0_f_579_28)">
<path d="M108.215 137.67C105.98 150.367 87.84 164.874 75.7184 170.916C57.0705 182.026 48.5337 173.76 43.182 170.703C29.9982 163.172 41.523 141.485 51.8127 140.853C62.1024 140.221 79.0135 129.771 89.7155 124.656C96.9197 121.213 111.008 121.799 108.215 137.67Z" fill="#CFB146"/>
</g>
<path d="M105.767 137.125C103.364 148.658 81.1825 163.446 70.392 169.398C53.7271 180.189 39.9894 176.916 32.5491 165.746C25.1089 154.577 33.7719 138.712 42.7711 137.712C51.7703 136.712 76.5137 130.64 86.0325 125.583C95.5513 120.526 108.771 122.707 105.767 137.125Z" fill="#FFE03A"/>
<path d="M105.767 137.125C103.364 148.658 81.1825 163.446 70.392 169.398C53.7271 180.189 39.9894 176.916 32.5491 165.746C25.1089 154.577 33.7719 138.712 42.7711 137.712C51.7703 136.712 76.5137 130.64 86.0325 125.583C95.5513 120.526 108.771 122.707 105.767 137.125Z" fill="url(#paint0_linear_579_28)" fill-opacity="0.2"/>
<g style="mix-blend-mode:multiply" filter="url(#filter1_f_579_28)">
<path d="M149.119 136.197C152.37 148.696 171.626 161.856 184.199 167.01C203.688 176.747 211.534 167.891 216.624 164.458C229.163 156.001 215.924 135.206 205.613 135.315C195.303 135.425 177.599 126.221 166.516 121.89C159.055 118.975 145.055 120.572 149.119 136.197Z" fill="#CFB146"/>
</g>
<path d="M151.515 135.477C154.84 146.805 178.149 159.955 189.388 165.113C206.874 174.675 220.308 170.424 226.827 158.752C233.346 147.08 223.43 131.884 214.376 131.534C205.322 131.183 180.162 126.908 170.263 122.55C160.364 118.192 147.358 121.318 151.515 135.477Z" fill="#FFE03A"/>
<path d="M151.515 135.477C154.84 146.805 178.149 159.955 189.388 165.113C206.874 174.675 220.308 170.424 226.827 158.752C233.346 147.08 223.43 131.884 214.376 131.534C205.322 131.183 180.162 126.908 170.263 122.55C160.364 118.192 147.358 121.318 151.515 135.477Z" fill="url(#paint1_linear_579_28)" fill-opacity="0.2"/>
<defs>
<filter id="filter0_f_579_28" x="34.2659" y="119.949" width="77.3103" height="59.5879" filterUnits="userSpaceOnUse" color-interpolation-filters="sRGB">
<feFlood flood-opacity="0" result="BackgroundImageFix"/>
<feBlend mode="normal" in="SourceGraphic" in2="BackgroundImageFix" result="shape"/>
<feGaussianBlur stdDeviation="1.5" result="effect1_foregroundBlur_579_28"/>
</filter>
<filter id="filter1_f_579_28" x="145.393" y="117.698" width="79.3362" height="56.7402" filterUnits="userSpaceOnUse" color-interpolation-filters="sRGB">
<feFlood flood-opacity="0" result="BackgroundImageFix"/>
<feBlend mode="normal" in="SourceGraphic" in2="BackgroundImageFix" result="shape"/>
<feGaussianBlur stdDeviation="1.5" result="effect1_foregroundBlur_579_28"/>
</filter>
<linearGradient id="paint0_linear_579_28" x1="119.34" y1="137.989" x2="37.789" y2="143.344" gradientUnits="userSpaceOnUse">
<stop stop-color="#FF0F00"/>
<stop offset="1" stop-color="#FFEAEA" stop-opacity="0"/>
</linearGradient>
<linearGradient id="paint1_linear_579_28" x1="138.052" y1="137.315" x2="219.787" y2="136.084" gradientUnits="userSpaceOnUse">
<stop stop-color="#FF0F00"/>
<stop offset="1" stop-color="#FFEAEA" stop-opacity="0"/>
</linearGradient>
</defs>
</svg>
