<svg width="466" height="293" viewBox="0 0 466 293" fill="none" xmlns="http://www.w3.org/2000/svg">
<path fill-rule="evenodd" clip-rule="evenodd" d="M248.03 274.651C228.668 282.498 205.338 287.079 180.226 287.079C113.182 287.079 58.8311 254.425 58.8311 214.144C58.8311 173.863 113.182 141.209 180.226 141.209C211.118 141.209 239.314 148.141 260.741 159.558C280.102 151.711 303.432 147.13 328.544 147.13C395.589 147.13 449.939 179.784 449.939 220.065C449.939 260.346 395.589 293 328.544 293C297.653 293 269.456 286.068 248.03 274.651Z" fill="#BCAC1D"/>
<ellipse cx="416.803" cy="158.157" rx="47.4812" ry="18.6009" transform="rotate(-40 416.803 158.157)" fill="#FFE03A"/>
<path d="M149.179 55.1372L170.228 95.7655H311.203C316.587 78.4699 326.769 42.4103 324.419 36.5364C316.098 21.8515 303.86 9.61403 289.665 3.74005C212.129 -13.0986 163.701 30.9887 149.179 55.1372Z" fill="#8C8383"/>
<path d="M176.591 62.9691C174.796 64.6007 171.794 73.3464 174.144 95.2758L316.098 89.4019C315.608 70.801 302.392 35.0677 253.442 40.9417C204.492 46.8157 181.812 58.0741 176.591 62.9691Z" fill="#514343"/>
<ellipse cx="48.3291" cy="196.324" rx="47.4812" ry="18.6009" transform="rotate(-40 48.3291 196.324)" fill="#FFE03A"/>
<path fill-rule="evenodd" clip-rule="evenodd" d="M242.673 284.711C255.528 284.711 268.05 283.781 280.088 282.019C290.602 283.803 301.696 284.758 313.161 284.758C380.206 284.758 434.556 252.104 434.556 211.823C434.556 196.18 426.359 181.687 412.404 169.81C408.955 110.694 334.284 63.4585 242.673 63.4585C157.809 63.4585 87.4811 103.993 74.8415 156.957C55.3324 169.898 43.4482 187.066 43.4482 205.902C43.4482 246.183 97.7987 278.837 164.843 278.837C171.362 278.837 177.761 278.528 184.002 277.934C202.288 282.318 222.052 284.711 242.673 284.711Z" fill="#FFE03A"/>
<path d="M167.291 157.442C169.901 147.162 182.563 131.988 212.324 153.526" stroke="black" stroke-width="4" stroke-linecap="round"/>
<path d="M261.274 160.379C266.332 152.384 280.169 140.408 295.049 156.463" stroke="black" stroke-width="4" stroke-linecap="round"/>
<path d="M215.261 185.833C215.914 204.597 219.471 232.531 228.478 194.154C239.834 234.881 245.61 208.187 247.079 189.749" stroke="black" stroke-width="4" stroke-linecap="round"/>
</svg>
