<svg width="406" height="303" viewBox="0 0 406 303" fill="none" xmlns="http://www.w3.org/2000/svg">
<path d="M135.672 105.376L136.651 107.265H138.78H279.755H282.331L283.097 104.806C285.802 96.1148 289.715 82.704 292.662 70.7025C294.134 64.7096 295.381 59.0021 296.112 54.3837C296.476 52.0796 296.724 49.9729 296.796 48.2C296.862 46.5798 296.813 44.7169 296.221 43.2365L296.133 43.0167L296.016 42.8108C287.414 27.6301 274.645 14.75 259.555 8.50599L259.266 8.38625L258.96 8.31978C179.635 -8.90729 129.841 36.2089 114.732 61.3335L113.724 63.0101L114.624 64.7472L135.672 105.376Z" stroke="black" stroke-width="7"/>
<path d="M134.215 106.649L134.565 109.908L137.84 109.773L279.794 103.899L283.239 103.756L283.148 100.31C282.887 90.3892 279.264 75.9361 269.094 64.6507C258.76 53.1833 242.044 45.4105 216.577 48.4666C191.91 51.4267 173.765 55.7544 161.06 60.0032C148.525 64.1953 140.956 68.419 137.765 71.4007C136.688 72.3916 135.933 73.888 135.377 75.4443C134.776 77.126 134.259 79.3093 133.895 82.0502C133.167 87.5355 133.021 95.4969 134.215 106.649Z" stroke="black" stroke-width="7"/>
<mask id="path-3-outside-1_73_292" maskUnits="userSpaceOnUse" x="0" y="67.4585" width="406" height="236" fill="black">
<rect fill="white" y="67.4585" width="406" height="236"/>
<path fill-rule="evenodd" clip-rule="evenodd" d="M206.225 295.711C219.08 295.711 231.601 294.781 243.639 293.019C254.154 294.803 265.248 295.758 276.713 295.758C343.758 295.758 398.108 263.104 398.108 222.823C398.108 207.18 389.911 192.687 375.956 180.81C372.507 121.694 297.836 74.4585 206.225 74.4585C121.361 74.4585 51.0329 114.993 38.3933 167.957C18.8841 180.898 7 198.066 7 216.902C7 257.183 61.3505 289.837 128.395 289.837C134.914 289.837 141.313 289.528 147.554 288.934C165.84 293.318 185.603 295.711 206.225 295.711Z"/>
</mask>
<path d="M243.639 293.019L244.811 286.117L243.72 285.932L242.625 286.092L243.639 293.019ZM375.956 180.81L368.968 181.217L369.142 184.202L371.419 186.14L375.956 180.81ZM38.3933 167.957L42.2628 173.79L44.5617 172.265L45.2021 169.582L38.3933 167.957ZM147.554 288.934L149.186 282.127L148.051 281.855L146.89 281.965L147.554 288.934ZM242.625 286.092C230.926 287.805 218.743 288.711 206.225 288.711V302.711C219.417 302.711 232.277 301.757 244.653 299.945L242.625 286.092ZM276.713 288.758C265.635 288.758 254.933 287.835 244.811 286.117L242.468 299.92C253.375 301.771 264.861 302.758 276.713 302.758V288.758ZM391.108 222.823C391.108 239.544 379.792 255.872 358.947 268.396C338.241 280.836 309.183 288.758 276.713 288.758V302.758C311.288 302.758 342.928 294.353 366.157 280.396C389.249 266.523 405.108 246.384 405.108 222.823H391.108ZM371.419 186.14C384.312 197.113 391.108 209.809 391.108 222.823H405.108C405.108 204.551 395.51 188.26 380.493 175.479L371.419 186.14ZM206.225 81.4585C250.896 81.4585 291.138 92.9867 320.427 111.392C349.792 129.846 367.419 154.661 368.968 181.217L382.944 180.402C381.045 147.842 359.611 119.482 327.876 99.5387C296.064 79.5479 253.165 67.4585 206.225 67.4585V81.4585ZM45.2021 169.582C50.9266 145.594 69.9658 123.594 98.6582 107.447C127.265 91.3468 164.857 81.4585 206.225 81.4585V67.4585C162.729 67.4585 122.725 77.8374 91.7919 95.2459C60.9442 112.607 38.4996 137.356 31.5845 166.332L45.2021 169.582ZM14 216.902C14 201.259 23.879 185.985 42.2628 173.79L34.5237 162.124C13.8892 175.812 0 194.874 0 216.902H14ZM128.395 282.837C95.9251 282.837 66.8676 274.915 46.1609 262.475C25.3162 249.951 14 233.622 14 216.902H0C0 240.463 15.859 260.602 38.9508 274.475C62.1805 288.432 93.8206 296.837 128.395 296.837V282.837ZM146.89 281.965C140.871 282.539 134.694 282.837 128.395 282.837V296.837C135.135 296.837 141.755 296.518 148.218 295.902L146.89 281.965ZM206.225 288.711C186.141 288.711 166.926 286.38 149.186 282.127L145.922 295.741C164.754 300.256 185.066 302.711 206.225 302.711V288.711Z" fill="black" mask="url(#path-3-outside-1_73_292)"/>
<path d="M107 156L148 201.5M143.5 156L101.5 194M258 169.5L281.5 201.5M288.5 169.5L254 196M64.5 212C40.8333 210.667 7.2 212.9 62 232.5" stroke="black" stroke-width="4" stroke-linecap="round"/>
<path d="M340.5 217.5C362.5 215 393.3 215.5 340.5 237.5" stroke="black" stroke-width="4" stroke-linecap="round"/>
<path d="M125 222L114 242.5" stroke="black" stroke-width="4" stroke-linecap="round"/>
<path d="M273.5 229.5L282 262" stroke="black" stroke-width="4" stroke-linecap="round"/>
<path d="M121 230.5C127.833 230.167 143.6 232.5 152 244.5C162.8 244.5 168.167 238.167 169.5 235C171.833 230 179.3 224.9 190.5 244.5C202.1 252.1 213.667 243.667 218 238.5C219.667 235.5 226.5 232.5 240.5 244.5C257.5 247 260 232.5 264 238.5C267.2 243.3 275.333 246.5 279 247.5" stroke="black" stroke-width="4" stroke-linecap="round"/>
</svg>
